<svg id="pivot" xmlns="http://www.w3.org/2000/svg" width="638.89" height="195.37" viewBox="0 0 638.89 195.37"><defs><style>.cls-1{fill:#93eaf9;}</style></defs><title>pivot</title><polygon points="363.45 73.13 276.33 73.13 303.02 0 334.05 0 363.45 73.13"/><ellipse cx="319.89" cy="73.66" rx="43.56" ry="7.53"/><polygon points="219.5 195.37 183.33 166.76 183.33 109.52 219.5 138.14 219.5 195.37"/><polygon points="419.82 195.37 455.99 166.76 455.99 109.52 419.82 138.14 419.82 195.37"/><rect x="219.5" y="138.14" width="200.32" height="57.24"/><polygon class="cls-1" points="638.89 109.52 0 109.52 21 56.1 617.89 56.1 638.89 109.52"/><polygon class="cls-1" points="183.48 109.38 219.5 138 420.11 138 455.99 109.52 183.48 109.38"/><g id="Layer_2" data-name="Layer 2"><rect y="109.52" width="183.33" height="57.24"/><rect x="455.56" y="109.52" width="183.33" height="57.24"/></g></svg>